<svg width="512" height="512" viewBox="0 0 512 512" fill="none" xmlns="http://www.w3.org/2000/svg">
<g clip-path="url(#clip0_3_4)">
<rect width="512" height="512" fill="#C1B0A3"/>
<path d="M469.333 128V202.667L437.333 213.333L404.48 160.853C401.707 156.373 394.667 158.293 394.667 163.627V240C394.667 260.907 386.347 279.68 373.333 293.973V448H320V320H314.667C310.187 320 305.707 319.36 301.44 318.72L206.72 302.933L182.827 345.813L203.307 448H149.333L128 346.667C127.36 340.267 128 333.867 131.413 328.32L153.173 289.707C142.584 283.815 133.711 275.268 127.427 264.907C121.142 254.546 117.664 242.727 117.333 230.613C116.48 233.813 116.053 238.507 116.693 245.333C117.333 254.72 119.68 268.587 118.187 283.947C117.333 299.307 110.293 315.093 101.333 325.547C92.16 336 82.1334 343.253 71.4667 348.8L56.5334 333.867C60.5867 323.84 64.64 314.88 65.4934 306.56C66.7734 298.667 65.28 292.267 62.9334 286.507L51.6267 262.4C47.1467 251.52 41.6 235.733 42.6667 217.173C43.3067 199.04 53.3334 175.36 72.32 162.347C91.52 149.333 112.213 147.627 129.067 151.04C139.733 153.173 150.613 158.293 160 165.547C167.893 161.92 177.067 160 186.667 160H309.333V149.333C309.333 102.187 347.52 64 394.667 64H469.333L450.347 92.5867C461.867 100.267 469.333 113.28 469.333 128Z" fill="#364450"/>
</g>
<defs>
<clipPath id="clip0_3_4">
<rect width="512" height="512" fill="white"/>
</clipPath>
</defs>
</svg>
